<?xml version="1.0" encoding="UTF-8"?>
<svg xmlns="http://www.w3.org/2000/svg" xmlns:xlink="http://www.w3.org/1999/xlink" width="24px" height="24px" viewBox="0 0 24 24" version="1.1">
<g id="surface1">
<path style=" stroke:none;fill-rule:nonzero;fill:rgb(37.254903%,62.7451%,30.588236%);fill-opacity:1;" d="M 11.996094 24 C 11.675781 24 11.355469 23.914062 11.074219 23.753906 L 8.140625 22.015625 C 7.703125 21.769531 7.914062 21.683594 8.058594 21.632812 C 8.644531 21.429688 8.761719 21.382812 9.386719 21.027344 C 9.453125 20.992188 9.539062 21.007812 9.605469 21.046875 L 11.863281 22.386719 C 11.945312 22.429688 12.058594 22.429688 12.132812 22.386719 L 20.929688 17.308594 C 21.011719 17.261719 21.0625 17.167969 21.0625 17.070312 L 21.0625 6.921875 C 21.0625 6.820312 21.011719 6.730469 20.925781 6.679688 L 12.136719 1.605469 C 12.054688 1.558594 11.945312 1.558594 11.863281 1.605469 L 3.074219 6.679688 C 2.988281 6.730469 2.9375 6.824219 2.9375 6.921875 L 2.9375 17.070312 C 2.9375 17.167969 2.988281 17.261719 3.074219 17.304688 L 5.484375 18.699219 C 6.789062 19.351562 7.59375 18.582031 7.59375 17.808594 L 7.59375 7.785156 C 7.59375 7.644531 7.707031 7.535156 7.847656 7.535156 L 8.964844 7.535156 C 9.101562 7.535156 9.21875 7.644531 9.21875 7.785156 L 9.21875 17.808594 C 9.21875 19.554688 8.269531 20.554688 6.613281 20.554688 C 6.105469 20.554688 5.703125 20.554688 4.589844 20.003906 L 2.28125 18.675781 C 1.710938 18.347656 1.359375 17.730469 1.359375 17.070312 L 1.359375 6.921875 C 1.359375 6.261719 1.710938 5.644531 2.28125 5.316406 L 11.074219 0.234375 C 11.632812 -0.078125 12.371094 -0.078125 12.921875 0.234375 L 21.71875 5.316406 C 22.285156 5.648438 22.640625 6.261719 22.640625 6.921875 L 22.640625 17.070312 C 22.640625 17.730469 22.285156 18.34375 21.71875 18.675781 L 12.921875 23.753906 C 12.644531 23.914062 12.324219 24 11.996094 24 Z M 19.097656 13.992188 C 19.097656 12.09375 17.816406 11.585938 15.113281 11.230469 C 12.382812 10.867188 12.101562 10.683594 12.101562 10.042969 C 12.101562 9.515625 12.339844 8.808594 14.359375 8.808594 C 16.167969 8.808594 16.835938 9.199219 17.109375 10.417969 C 17.132812 10.53125 17.238281 10.617188 17.355469 10.617188 L 18.496094 10.617188 C 18.566406 10.617188 18.632812 10.585938 18.683594 10.535156 C 18.730469 10.480469 18.757812 10.410156 18.75 10.339844 C 18.570312 8.242188 17.179688 7.261719 14.359375 7.261719 C 11.851562 7.261719 10.355469 8.320312 10.355469 10.097656 C 10.355469 12.019531 11.84375 12.554688 14.253906 12.789062 C 17.132812 13.074219 17.355469 13.492188 17.355469 14.058594 C 17.355469 15.042969 16.566406 15.460938 14.714844 15.460938 C 12.386719 15.460938 11.875 14.878906 11.703125 13.71875 C 11.683594 13.597656 11.574219 13.503906 11.449219 13.503906 L 10.3125 13.503906 C 10.171875 13.503906 10.058594 13.617188 10.058594 13.757812 C 10.058594 15.238281 10.863281 17.007812 14.714844 17.007812 C 17.5 17.007812 19.097656 15.910156 19.097656 13.992188 Z M 19.097656 13.992188 "/>
</g>
</svg>
